<?xml version="1.0" standalone="no"?>
<!DOCTYPE svg PUBLIC "-//W3C//DTD SVG 20010904//EN"
 "http://www.w3.org/TR/2001/REC-SVG-20010904/DTD/svg10.dtd">
<svg version="1.0" xmlns="http://www.w3.org/2000/svg"
 width="470.000000pt" height="95.000000pt" viewBox="0 0 470.000000 95.000000"
 preserveAspectRatio="xMidYMid meet">

<g transform="translate(0.000000,95.000000) scale(0.100000,-0.100000)"
fill="#000000" stroke="none">
<path d="M2340 495 l0 -435 50 0 50 0 0 435 0 435 -50 0 -50 0 0 -435z"/>
<path d="M4580 765 l0 -164 -49 30 c-59 37 -112 45 -182 29 -73 -18 -150 -94
-173 -170 -21 -70 -21 -210 0 -281 49 -164 241 -209 371 -87 l31 30 9 -43 c8
-43 10 -44 51 -47 l42 -3 0 435 0 436 -50 0 -50 0 0 -165z m-41 -213 l36 -29
3 -151 3 -150 -46 -40 c-91 -80 -200 -65 -253 33 -12 22 -17 57 -17 135 0 111
15 160 63 203 51 46 154 45 211 -1z"/>
<path d="M1812 909 c-67 -13 -146 -53 -196 -99 -212 -196 -161 -601 92 -720
143 -68 352 -40 447 59 l29 31 -27 28 c-25 24 -29 25 -50 12 -97 -61 -109 -65
-207 -65 -87 0 -100 3 -149 30 -62 34 -101 83 -132 164 -29 77 -24 221 11 299
69 159 266 218 437 131 l65 -33 24 27 c13 16 24 32 24 37 0 6 -24 25 -52 44
-87 58 -202 78 -316 55z"/>
<path d="M298 588 c-3 -302 -4 -325 -23 -357 -35 -59 -67 -75 -158 -81 l-82
-5 0 -40 c0 -38 2 -39 40 -48 57 -12 145 -3 192 22 49 25 105 87 123 138 10
28 15 123 17 366 l4 327 -55 0 -55 0 -3 -322z"/>
<path d="M662 727 c-18 -101 -32 -191 -32 -199 0 -28 49 -36 110 -20 105 27
201 1 247 -68 44 -64 26 -198 -34 -252 -61 -55 -158 -62 -251 -18 -35 17 -67
30 -72 30 -4 0 -17 -14 -28 -32 l-21 -32 41 -28 c58 -38 155 -62 222 -55 163
17 269 132 269 292 -1 111 -37 176 -126 222 -47 25 -62 28 -156 27 l-103 0 6
45 c3 25 11 74 17 109 l11 62 148 0 c167 0 180 5 180 66 l0 34 -198 0 -199 0
-31 -183z"/>
<path d="M2730 821 c-15 -29 -12 -56 8 -74 23 -21 42 -21 68 -2 10 8 40 15 65
15 39 0 49 -4 63 -25 9 -13 16 -27 16 -30 0 -3 -52 -5 -115 -5 -103 0 -115 -2
-125 -19 -5 -11 -10 -22 -10 -25 0 -3 61 -6 136 -6 l136 0 26 -30 c24 -27 72
-42 72 -22 0 4 -26 52 -58 107 l-57 100 -65 3 c-44 2 -67 8 -73 18 -12 22 -74
18 -87 -5z m76 -23 c7 -22 -19 -52 -40 -45 -17 6 -29 34 -23 51 10 24 54 21
63 -6z"/>
<path d="M3152 814 c-34 -24 -28 -61 17 -103 47 -43 59 -81 38 -112 -15 -21
-17 -19 -59 56 -60 108 -69 117 -100 113 l-27 -3 64 -112 c66 -114 74 -139 54
-171 -9 -14 -8 -25 3 -47 l15 -28 61 104 c34 57 62 111 62 120 0 10 -11 36
-24 60 -16 27 -23 52 -20 68 10 49 -43 84 -84 55z m62 -30 c8 -21 -11 -44 -36
-44 -21 0 -33 22 -24 45 7 20 52 19 60 -1z"/>
<path d="M3530 433 c0 -251 6 -279 66 -334 75 -69 227 -59 298 20 26 28 36 26
36 -7 0 -37 17 -52 57 -52 l33 0 0 300 0 300 -50 0 -50 0 -2 -227 -3 -227 -42
-32 c-81 -62 -187 -54 -224 16 -17 31 -19 59 -19 252 l0 218 -50 0 -50 0 0
-227z"/>
<path d="M2610 589 c-18 -24 -34 -50 -37 -56 -3 -7 -14 -13 -24 -13 -10 0 -26
-11 -34 -24 -29 -44 13 -98 63 -81 21 6 46 51 37 65 -3 5 6 27 21 50 22 33 32
40 60 40 l34 0 -61 -95 c-58 -91 -61 -97 -49 -126 l13 -30 77 119 c77 118 91
132 134 132 15 0 27 9 34 25 11 25 11 25 -37 25 -26 0 -82 3 -123 6 l-76 7
-32 -44z m-20 -108 c7 -15 6 -24 -6 -36 -31 -30 -66 -1 -50 41 8 20 44 17 56
-5z"/>
<path d="M3224 443 c-70 -120 -90 -143 -125 -143 -17 0 -32 -9 -43 -25 l-16
-25 130 0 130 0 30 46 c16 26 40 52 52 58 45 22 27 106 -24 106 -29 0 -61 -38
-55 -67 3 -15 -3 -39 -15 -59 -16 -28 -26 -34 -53 -34 l-33 0 60 99 c51 85 58
102 49 120 -7 12 -16 21 -21 21 -5 0 -35 -44 -66 -97z m150 -9 c21 -8 21 -53
0 -61 -18 -7 -45 6 -51 24 -2 6 3 18 12 27 19 18 18 18 39 10z"/>
<path d="M2702 354 c-34 -52 -62 -104 -62 -115 0 -11 10 -39 22 -62 12 -25 20
-57 19 -79 -1 -28 3 -39 18 -47 29 -16 56 -13 74 7 25 27 21 58 -10 82 -32 25
-63 74 -63 98 0 9 7 25 14 35 12 16 19 8 67 -80 46 -83 58 -98 82 -101 15 -2
27 0 27 3 0 4 -28 61 -62 127 -58 115 -60 122 -49 154 12 33 7 74 -8 74 -4 0
-36 -43 -69 -96z m62 -246 c8 -14 7 -21 -6 -34 -30 -30 -75 9 -48 42 16 18 39
15 54 -8z"/>
<path d="M2850 273 c0 -5 26 -55 58 -113 l57 -105 58 -3 c41 -2 64 -9 78 -23
31 -31 65 -24 88 19 18 33 -9 72 -49 72 -16 0 -32 -5 -35 -10 -3 -5 -28 -10
-55 -10 -45 0 -51 3 -65 30 l-16 30 115 0 c108 0 114 1 129 24 l16 23 -142 7
c-142 7 -142 7 -167 36 -22 27 -70 42 -70 23z m318 -205 c2 -19 -2 -28 -17
-33 -27 -8 -41 1 -41 29 0 29 9 38 35 34 13 -2 21 -12 23 -30z"/>
</g>
</svg>
